<!DOCTYPE svg PUBLIC "-//W3C//DTD SVG 20010904//EN" "http://www.w3.org/TR/2001/REC-SVG-20010904/DTD/svg10.dtd">
<svg version="1.0" xmlns="http://www.w3.org/2000/svg" width="512px" height="512px" viewBox="0 0 5120 5120" preserveAspectRatio="xMidYMid meet">
<g id="layer101" fill="#fd4c85" stroke="none">
<path d="M1016 5110 c-65 -20 -115 -103 -100 -167 4 -15 51 -117 106 -225 l98 -198 -327 0 c-181 0 -362 -5 -403 -10 -187 -24 -336 -163 -375 -347 -22 -101 -22 -2505 0 -2606 36 -173 169 -306 342 -342 56 -12 223 -15 958 -15 l890 0 -338 -338 c-271 -271 -339 -345 -348 -375 -28 -101 64 -199 171 -181 30 5 97 68 442 412 354 353 410 405 422 392 7 -8 183 -242 391 -520 208 -278 391 -520 408 -538 105 -110 293 -6 244 135 -7 21 -176 255 -375 520 -199 266 -362 485 -362 488 0 3 413 5 918 5 758 0 929 3 985 15 173 36 306 169 342 342 22 104 22 2508 0 2602 -45 190 -195 326 -386 351 -40 5 -217 10 -392 10 l-317 0 101 203 c111 220 120 254 83 318 -27 47 -100 83 -149 73 -68 -12 -89 -42 -231 -325 l-134 -269 -1118 0 -1117 0 -140 278 c-138 272 -141 277 -185 300 -48 24 -59 25 -104 12z m3732 -910 c18 -11 41 -34 52 -52 20 -32 20 -53 20 -1288 0 -1235 0 -1256 -20 -1288 -11 -18 -34 -41 -52 -52 -33 -20 -52 -20 -2200 -18 l-2168 3 -37 38 -38 37 -3 1268 c-2 1250 -2 1267 18 1300 11 18 34 41 52 52 33 20 55 20 2188 20 2133 0 2155 0 2188 -20z"/>
</g>
<g id="layer102" fill="#ff00ff" stroke="none">
</g>
<g id="layer103" fill="#fe8b8a" stroke="none">
<path d="M0 1998 c0 -409 6 -466 57 -560 36 -67 114 -145 181 -181 104 -56 107 -57 1077 -57 l890 0 -338 -338 c-271 -271 -339 -345 -348 -375 -28 -101 64 -199 171 -181 30 5 97 68 442 412 354 353 410 405 422 392 7 -8 183 -242 391 -520 208 -278 391 -520 408 -538 105 -110 293 -6 244 135 -7 21 -176 255 -375 520 -199 266 -362 485 -362 488 0 3 413 5 918 5 999 0 999 0 1104 57 67 36 145 114 181 181 51 94 57 151 57 560 l0 372 -150 0 -150 0 0 -382 c0 -365 -1 -385 -20 -416 -11 -18 -34 -41 -52 -52 -33 -20 -52 -20 -2200 -18 l-2168 3 -37 38 -38 37 -3 395 -3 395 -149 0 -150 0 0 -372z"/>
</g>


</svg>